# Blender v2.83.0 OBJ File: 'skybox.blend'
# www.blender.org
o Cube_Cube.001
v -31.450125 -1.419380 31.450125
v -31.450125 35.914913 31.450125
v 31.450125 -1.419380 31.450125
v -31.450125 -1.419380 -31.450125
v -31.450125 35.914913 -31.450125
v 31.450125 -1.419380 -31.450125
v 31.450125 35.914913 -31.450125
v 31.450125 35.914913 31.450125
v 31.450125 -1.419380 -31.450125
v 31.450125 -1.419380 -31.450125
v -31.450125 -1.419380 -31.450125
v -31.450125 -1.419380 -31.450125
v -31.450125 35.914913 -31.450125
v -31.450125 35.914913 -31.450125
v 31.450125 35.914913 -31.450125
v 31.450125 35.914913 -31.450125
v -31.450125 -1.419380 31.450125
v -31.450125 -1.419380 31.450125
v 31.450125 -1.419380 31.450125
v 31.450125 -1.419380 31.450125
v -31.450125 35.914913 31.450125
v -31.450125 35.914913 31.450125
v 31.450125 35.914913 31.450125
v 31.450125 35.914913 31.450125
vt 0.749023 0.462891
vt 1.000000 0.713867
vt 1.000000 0.462891
vt 0.499023 0.462891
vt 0.749023 0.713867
vt 0.749023 0.462891
vt 0.250000 0.462891
vt 0.499023 0.713867
vt 0.499023 0.462891
vt 0.000000 0.462891
vt 0.250000 0.713867
vt 0.250000 0.462891
vt 0.250000 0.214844
vt 0.499023 0.462891
vt 0.499023 0.214844
vt 0.250000 0.713867
vt 0.499023 0.963867
vt 0.499023 0.713867
vt 0.749023 0.713867
vt 0.499023 0.713867
vt 0.250000 0.713867
vt 0.000000 0.713867
vt 0.250000 0.462891
vt 0.250000 0.963867
vn 1.0000 0.0000 0.0000
vn 0.0000 0.0000 1.0000
vn -1.0000 0.0000 0.0000
vn 0.0000 0.0000 -1.0000
vn 0.0000 1.0000 0.0000
vn 0.0000 -1.0000 0.0000
s off
f 12/1/1 21/2/1 18/3/1
f 9/4/2 13/5/2 11/6/2
f 20/7/3 16/8/3 10/9/3
f 17/10/4 24/11/4 19/12/4
f 1/13/5 6/14/5 4/15/5
f 8/16/6 5/17/6 7/18/6
f 12/1/1 14/19/1 21/2/1
f 9/4/2 15/20/2 13/5/2
f 20/7/3 23/21/3 16/8/3
f 17/10/4 22/22/4 24/11/4
f 1/13/5 3/23/5 6/14/5
f 8/16/6 2/24/6 5/17/6
